# xmcd
#
# Track frame offsets: 
#        150
#        41222
#        68392
#        112811
#        137352
#
# Disc length: 1998 seconds
#
# Revision: 1
# Processed by: cddbd v1.5.2PL0 Copyright (c) Steve Scherf et al.
# Submitted via: ExactAudioCopy v1.0b2
#
DISCID=3607cc05
DTITLE=Miles Davis - Cool Jazz Collection 01
DYEAR=2008
DGENRE=Jazz
TTITLE0=Someday My Prince Will Come
TTITLE1=My Funny Valentine
TTITLE2=On Green Dolphin Street
TTITLE3='Round Midnight
TTITLE4=Generique
EXTD=YEAR: 2008
EXTT0=
EXTT1=
EXTT2=
EXTT3=
EXTT4=
PLAYORDER=
